Coordinates
version=1
nRows=17
nColumns=24
inDegrees=yes

Units are S.I. units (second, meters, Newtons, ...)
Angles are in degrees.

endheader
time	pelvis_tilt	pelvis_list	pelvis_rotation	pelvis_tx	pelvis_ty	pelvis_tz	hip_flexion_r	hip_adduction_r	hip_rotation_r	knee_angle_r	ankle_angle_r	subtalar_angle_r	mtp_angle_r	hip_flexion_l	hip_adduction_l	hip_rotation_l	knee_angle_l	ankle_angle_l	subtalar_angle_l	mtp_angle_l	lumbar_extension	lumbar_bending	lumbar_rotation
      1.09583333	     -8.03309220	     -2.20554132	     -3.49757147	      0.07084489	      1.01912536	      0.30688788	    -10.00227089	      3.81965900	      1.08526610	    -12.27203668	     18.74750782	      2.40204531	      6.10343652	     36.64372267	     -4.04968944	     -2.57747843	     -5.29793004	     11.35411681	      6.38201552	      1.75588973	     -3.00927231	      4.37368833	      5.95950248
      1.10000000	     -8.01935515	     -2.13703146	     -3.61571231	      0.07725054	      1.01845761	      0.30660497	    -10.14572275	      3.64819017	      1.02385235	    -12.74758201	     18.60082518	      2.65915622	      6.35757504	     36.64302379	     -3.96713778	     -2.38009459	     -5.85759320	     11.05422712	      6.10468636	      1.80932788	     -2.99786396	      4.19236417	      6.01111045
      1.10416667	     -8.03318449	     -2.08089251	     -3.72970613	      0.08367524	      1.01778351	      0.30631717	    -10.25559888	      3.49587412	      1.00489611	    -13.22293524	     18.31432561	      2.73970805	      9.25158148	     36.67838461	     -3.89595844	     -2.17736184	     -6.45490036	     10.71597531	      5.83718267	      2.47799257	     -2.95736666	      4.04267105	      6.02078978
      1.10833333	     -8.02261353	     -1.98745941	     -3.84902203	      0.09016249	      1.01720728	      0.30605567	    -10.37676649	      3.29632459	      0.94909830	    -13.72860329	     18.07208158	      2.96714694	      9.29605063	     36.68382466	     -3.80039458	     -2.08923489	     -7.07700740	     10.36178767	      5.70136329	      2.48112622	     -2.93436057	      3.81252529	      6.06296432
      1.11250000	     -8.02854104	     -1.89825824	     -3.95893309	      0.09665598	      1.01664265	      0.30575161	    -10.45894363	      3.09965022	      0.86332158	    -14.27437245	     17.81420958	      3.20725240	      9.39060640	     36.70765464	     -3.70065927	     -1.95695873	     -7.71587003	      9.95241396	      5.47424205	      2.49253905	     -2.89484012	      3.60228383	      6.10346016
      1.11666667	     -8.03902796	     -1.79775133	     -4.06497204	      0.10318338	      1.01612489	      0.30544845	    -10.52222413	      2.89110651	      0.77386604	    -14.84380321	     17.52189960	      3.42445630	      9.53347925	     36.73389751	     -3.59103236	     -1.84208290	     -8.36577777	      9.50347866	      5.22374922	      2.51093286	     -2.83653326	      3.37200160	      6.12889913
      1.12083333	     -7.99076151	     -1.69045646	     -4.13228172	      0.10970031	      1.01575139	      0.30505376	    -10.63833782	      2.67318641	      0.63146233	    -15.42216128	     17.16056636	      3.57213807	     10.99674625	     36.67697882	     -3.43722271	     -1.56952642	     -8.97368244	      8.97400314	      4.68930412	      2.75611574	     -2.86766064	      3.13811927	      6.10513915
      1.12500000	     -8.05952979	     -1.59107965	     -4.25002806	      0.11627363	      1.01525561	      0.30476178	    -10.60136999	      2.46681369	      0.57355797	    -16.05283843	     16.77188732	      3.76887345	     11.10677716	     36.79512103	     -3.35492733	     -1.61264570	     -9.71550083	      8.51890198	      4.63698382	      2.76411210	     -2.72926436	      2.91695525	      6.12660024
      1.12916667	     -8.09063789	     -1.48812116	     -4.32319907	      0.12282333	      1.01485137	      0.30435211	    -10.57934833	      2.25149644	      0.41325375	    -16.72387413	     16.32859126	      3.92797069	     14.22575673	     36.86272011	     -3.22810537	     -1.48683549	    -10.42923424	      7.99331685	      4.27850067	      3.13946707	     -2.64488188	      2.70306568	      6.12411068
      1.13333333	     -8.10228064	     -1.35340303	     -4.40615159	      0.12942871	      1.01454600	      0.30398594	    -10.55941497	      1.99786084	      0.25902081	    -17.43042742	     15.90781901	      4.16346846	     14.30638104	     36.92435574	     -3.09494517	     -1.53538163	    -11.19493174	      7.54683599	      4.14623652	      3.13492938	     -2.57909990	      2.42326975	      6.13312418
      1.13750000	     -8.12544663	     -1.22390065	     -4.47149692	      0.13603273	      1.01427846	      0.30358290	    -10.50617659	      1.75311953	      0.09550496	    -18.17087346	     15.43209486	      4.36036800	     14.46468777	     36.99764302	     -2.95628238	     -1.52628171	    -11.96036342	      7.07098073	      3.92277231	      3.12984469	     -2.49581979	      2.15438659	      6.11170701
      1.14166667	     -8.15276549	     -1.10095661	     -4.52374303	      0.14263196	      1.01407547	      0.30313801	    -10.42951065	      1.51654621	     -0.06204574	    -18.92822008	     14.81474941	      4.46673536	     17.25111249	     37.07389736	     -2.81516568	     -1.47850578	    -12.72692873	      6.60519929	      3.65048104	      3.14942739	     -2.41730385	      1.90002768	      6.06943866
      1.14583333	     -8.13764826	     -0.97383982	     -4.57436085	      0.14923211	      1.01400151	      0.30270657	    -10.37632760	      1.27370619	     -0.21525858	    -19.72511812	     14.20498855	      4.55369384	     17.26873173	     37.12468945	     -2.68396199	     -1.55319660	    -13.54364644	      6.20552084	      3.54459462	      3.14034331	     -2.38251403	      1.64756139	      6.03470740
      1.15000000	     -8.18330075	     -0.81934724	     -4.61203669	      0.15585856	      1.01386500	      0.30224502	    -10.21978785	      1.00028806	     -0.41042940	    -20.59374670	     13.61770541	      4.78360126	     17.35445734	     37.23336703	     -2.52125406	     -1.58233038	    -14.35064981	      5.80389627	      3.39893824	      3.12649519	     -2.27951527	      1.31847394	      5.98875333
      1.15416667	     -8.21394570	     -0.67079832	     -4.63992857	      0.16243256	      1.01378454	      0.30170842	    -10.02965302	      0.72036795	     -0.66824228	    -21.55474340	     13.07348828	      5.02842081	     17.58692279	     37.33468606	     -2.35475640	     -1.60051237	    -15.17709304	      5.44580702	      3.17803981	      3.10019348	     -2.19056853	      1.04757005	      5.93932628
      1.15833333	     -8.17942805	     -0.49951854	     -4.66023753	      0.16902394	      1.01391535	      0.30117748	     -9.90148479	      0.41372215	     -0.90352716	    -22.49858227	     12.33454874	      5.15675657	     20.67863855	     37.33030272	     -2.15386515	     -1.57216234	    -15.93446646	      5.09073633	      2.87358464	      2.79554358	     -2.19829147	      0.71491321	      5.86759769
      1.16250000	     -8.22134151	     -0.37152572	     -4.66820486	      0.17558763	      1.01392146	      0.30062185	     -9.65853865	      0.16552149	     -1.11378278	    -23.51268359	     11.62847626	      5.28082876	     20.75128228	     37.45971075	     -2.01454198	     -1.66866581	    -16.80419381	      4.84901745	      2.89444773	      2.78066926	     -2.08941280	      0.45903916	      5.81477814
